<svg xmlns="http://www.w3.org/2000/svg" version="1.1" xmlns:xlink="http://www.w3.org/1999/xlink" xmlns:svgjs="http://svgjs.dev/svgjs" width="2000" height="1500" viewBox="0 0 2000 1500"><rect width="2000" height="1500" fill="#853439"></rect><g transform="matrix(0.75,0,0,0.75,249.090909090909,430.38289936549336)"><svg viewBox="0 0 396 168" data-background-color="#853439" preserveAspectRatio="xMidYMid meet" height="848" width="2000" xmlns="http://www.w3.org/2000/svg" xmlns:xlink="http://www.w3.org/1999/xlink"><g id="tight-bounds" transform="matrix(1,0,0,1,0.2400000000000091,0.42715865817156384)"><svg viewBox="0 0 395.52 167.14568268365687" height="167.14568268365687" width="395.52"><g><svg viewBox="0 0 584.9540498455242 247.2" height="167.14568268365687" width="395.52"><g transform="matrix(1,0,0,1,240.07527746700765,0)"><svg viewBox="0 0 344.8787723785166 247.2" height="247.2" width="344.8787723785166"><g id="textblocktransform"><svg viewBox="0 0 344.8787723785166 247.2" height="247.2" width="344.8787723785166" id="textblock"><g><svg viewBox="0 0 344.8787723785166 247.2" height="247.2" width="344.8787723785166"><g transform="matrix(1,0,0,1,0,0)"><svg width="344.8787723785166" viewBox="58.449999999999996 -35 109.10000000000002 74.7" height="247.2" data-palette-color="#ffffff"><svg></svg><svg></svg><g class="wordmark-text-0" data-fill-palette-color="primary" id="text-0"><path transform="translate(54.83,0)" d="M25.95 0l-4.6-21.95-4.55 21.95h-5.65l-7.25-35h5l5.15 25.6 5.35-25.6h3.9l5.35 25.6 4.9-25.6h5.15l-7.2 35zM58.2 0c-3.6 0.367-6.2 0.55-7.8 0.55v0c-3.5 0-6.283-0.65-8.35-1.95-2.067-1.3-3.1-3.65-3.1-7.05v0-4.15c0-3.3 1.15-5.517 3.45-6.65v0c1.1-0.533 2.4-0.8 3.9-0.8v0c1.333 0 2.683 0.2 4.05 0.6 1.367 0.4 2.467 0.867 3.3 1.4v0c0-1.4-0.533-2.45-1.6-3.15-1.067-0.7-2.6-1.05-4.6-1.05v0l0.35-3.2c3.2 0 5.56 0.507 7.08 1.52 1.513 1.02 2.447 2.23 2.8 3.63 0.347 1.4 0.52 3.2 0.52 5.4v0zM53.65-13.5c-0.867-0.5-1.917-0.95-3.15-1.35-1.233-0.4-2.383-0.6-3.45-0.6v0c-2.367 0-3.55 1.117-3.55 3.35v0 3.3c0 3.433 2.2 5.15 6.6 5.15v0c1.067 0 2.25-0.1 3.55-0.3v0zM69.2 0.65c-2.467-0.2-4.217-0.933-5.25-2.2-1.033-1.267-1.55-2.95-1.55-5.05v0-28.4h4.6v9.95h5.2l-1.2 4.3h-4v14.15c0 1.167 0.3 2.023 0.9 2.57 0.6 0.553 1.483 0.913 2.65 1.08v0zM91.25-0.3c-2.067 0.533-4.067 0.8-6 0.8v0c-1.8 0-3.3-0.2-4.5-0.6v0c-1.967-0.667-3.39-1.693-4.27-3.08-0.887-1.38-1.33-3.32-1.33-5.82v0-6.4c0-3.3 0.867-5.81 2.6-7.53 1.733-1.713 3.967-2.57 6.7-2.57v0c2.167 0 4.4 0.533 6.7 1.6v0l-1.25 3.8c-1.633-0.667-3.183-1-4.65-1v0c-1.733 0-3.09 0.473-4.07 1.42-0.987 0.953-1.48 2.28-1.48 3.98v0 7.25c0 1.6 0.55 2.75 1.65 3.45 1.1 0.7 2.5 1.05 4.2 1.05v0c1.5 0 3-0.217 4.5-0.65v0zM107.9 0v-16c0-1.867-0.457-3.21-1.37-4.03-0.92-0.813-2.097-1.22-3.53-1.22v0c-0.8 0-1.6 0.107-2.4 0.32-0.8 0.22-1.483 0.497-2.05 0.83v0 20.1h-4.55v-35h4.55v10.55c0.567-0.3 1.293-0.55 2.18-0.75 0.88-0.2 1.803-0.3 2.77-0.3v0c1.767 0 3.333 0.317 4.7 0.95v0c1.333 0.6 2.377 1.5 3.13 2.7 0.747 1.2 1.12 2.717 1.12 4.55v0 17.3z" fill="#ffffff" fill-rule="nonzero" stroke="none" stroke-width="1" stroke-linecap="butt" stroke-linejoin="miter" stroke-miterlimit="10" stroke-dasharray="" stroke-dashoffset="0" font-family="none" font-weight="none" font-size="none" text-anchor="none" style="mix-blend-mode: normal" data-fill-palette-color="primary" opacity="1"></path><path transform="translate(54.55,39.1)" d="M26.15 0v-21.4l-7 21.4h-3.8l-6.9-21.35v21.35h-4.55v-35h4.55l8.8 25.8 8.9-25.8h4.55v35zM57.25-9.2c0 2.8-0.767 5.117-2.3 6.95-1.533 1.833-3.85 2.75-6.95 2.75v0c-3.1 0-5.44-0.923-7.02-2.77-1.587-1.853-2.38-4.163-2.38-6.93v0-6.6c0-3.167 0.81-5.593 2.43-7.28 1.613-1.68 3.937-2.52 6.97-2.52v0c2.9 0 5.167 0.873 6.8 2.62 1.633 1.753 2.45 4.147 2.45 7.18v0zM52.75-15.8c0-3.533-1.583-5.3-4.75-5.3v0c-1.433 0-2.6 0.4-3.5 1.2-0.9 0.8-1.35 2.167-1.35 4.1v0 7.1c0 1.567 0.45 2.757 1.35 3.57 0.9 0.82 2.067 1.23 3.5 1.23v0c1.433 0 2.583-0.417 3.45-1.25 0.867-0.833 1.3-2.017 1.3-3.55v0zM66.8 0l-7.9-25.05h4.95l5.35 17.7 5.3-17.7h4.9l-7.85 25.05zM86.8-30.5c-0.667 0-1.257-0.26-1.77-0.78-0.52-0.513-0.78-1.103-0.78-1.77v0c0-0.633 0.26-1.2 0.78-1.7 0.513-0.5 1.103-0.75 1.77-0.75v0c0.667 0 1.243 0.243 1.73 0.73 0.48 0.48 0.72 1.053 0.72 1.72v0c0 0.667-0.25 1.257-0.75 1.77-0.5 0.52-1.067 0.78-1.7 0.78zM84.4 0v-25.05h4.55v25.05zM111.75-1.75c-1.2 0.767-2.567 1.35-4.1 1.75-1.533 0.4-3.067 0.6-4.6 0.6v0c-2.467 0-4.423-0.61-5.87-1.83-1.453-1.213-2.18-3.037-2.18-5.47v0-10.25c0-2.7 0.843-4.8 2.53-6.3 1.68-1.5 3.903-2.25 6.67-2.25v0c2.767 0 4.927 0.74 6.48 2.22 1.547 1.487 2.32 3.547 2.32 6.18v0 7.2l-13.4 0.75v1.95c0 1.167 0.343 2.057 1.03 2.67 0.68 0.62 1.637 0.93 2.87 0.93v0c1.833 0 4.017-0.667 6.55-2v0zM108.4-17.15c0-1.367-0.433-2.377-1.3-3.03-0.867-0.647-1.85-0.97-2.95-0.97v0c-1.433 0-2.55 0.39-3.35 1.17-0.8 0.787-1.2 1.813-1.2 3.08v0 3.5l8.8-0.5z" fill="#ffffff" fill-rule="nonzero" stroke="none" stroke-width="1" stroke-linecap="butt" stroke-linejoin="miter" stroke-miterlimit="10" stroke-dasharray="" stroke-dashoffset="0" font-family="none" font-weight="none" font-size="none" text-anchor="none" style="mix-blend-mode: normal" data-fill-palette-color="primary" opacity="1"></path></g></svg></g></svg></g></svg></g></svg></g><g transform="matrix(1,0,0,1,0,43.99533106954674)"><svg viewBox="0 0 213.13508132992325 159.20933786090652" height="159.20933786090652" width="213.13508132992325"><g><svg xmlns="http://www.w3.org/2000/svg" xmlns:xlink="http://www.w3.org/1999/xlink" version="1.1" x="0" y="0" viewBox="8 19 83 62" enable-background="new 0 0 100 100" xml:space="preserve" height="159.20933786090652" width="213.13508132992325" class="icon-icon-0" data-fill-palette-color="accent" id="icon-0"><g fill="#ffffff" data-fill-palette-color="accent"><path fill="#ffffff" d="M83.891 19H15.109C11.189 19 8 22.113 8 25.939V74.06C8 77.887 11.189 81 15.109 81H83.892C87.811 81 91 77.887 91 74.061V25.939C91 22.113 87.811 19 83.891 19M22 47H14V39H22zM14 53H22V61H14zM28 25H71.125V75H28zM76.992 33V25H82.992A2 2 0 0 1 84.992 27V33S77.048 32.997 76.992 33M76.992 47V39H84.992V47S77.048 46.997 76.992 47M76.992 61V53H84.992V61S77.048 60.997 76.992 61M77 75V67H85V72.999C85 74.104 84.109 74.999 83.005 74.999 80.647 74.999 77.038 74.998 77 75M16 25H22V33H14V27C14 25.9 14.9 25 16 25M14 73V67H22V75H16C14.9 75 14 74.1 14 73" data-fill-palette-color="accent"></path><path fill="#ffffff" d="M57.373 49.852L44.38 40.534C43.385 39.821 42 40.532 42 41.756V60.392C42 61.616 43.385 62.327 44.38 61.614L57.373 52.296C58.209 51.696 58.209 50.452 57.373 49.852" data-fill-palette-color="accent"></path></g></svg></g></svg></g></svg></g><defs></defs></svg><rect width="395.52" height="167.14568268365687" fill="none" stroke="none" visibility="hidden"></rect></g></svg></g></svg>